<svg width="500" height="400" viewBox="0 0 500 400" fill="none" xmlns="http://www.w3.org/2000/svg">
<rect width="500" height="400" rx="5" fill="#F1F2F7"/>
<g clip-path="url(#clip0_332_815)">
<rect x="20" y="20" width="460" height="40" rx="15" fill="white"/>
<path d="M30.39 49.273C31.274 47.245 32.535 44.346 34.173 40.576C35.837 36.78 37.891 32.126 40.335 26.614C40.361 26.536 40.374 26.458 40.374 26.38C40.4 26.302 40.413 26.224 40.413 26.146C40.413 25.782 40.257 25.392 39.945 24.976H42.051C42.779 24.976 43.143 25.145 43.143 25.483C43.143 25.665 43.065 25.938 42.909 26.302C42.103 28.044 41.063 30.332 39.789 33.166C38.515 36 36.994 39.38 35.226 43.306C35.616 42.76 36.084 42.201 36.63 41.629C37.176 41.057 37.787 40.472 38.463 39.874C38.931 39.432 39.451 39.016 40.023 38.626C40.595 38.21 41.219 37.82 41.895 37.456C43.429 36.598 44.56 36.169 45.288 36.169C45.47 36.169 45.6 36.182 45.678 36.208C45.262 36.936 44.872 37.638 44.508 38.314C44.17 38.99 43.845 39.627 43.533 40.225C42.025 43.137 41.18 45.152 40.998 46.27C40.92 46.66 40.881 46.998 40.881 47.284C40.881 47.986 41.141 48.337 41.661 48.337C42.363 48.337 43.312 47.466 44.508 45.724L45.093 46.075C43.741 48.129 42.402 49.156 41.076 49.156C39.438 49.156 38.619 48.311 38.619 46.621C38.619 45.243 39.464 43.202 41.154 40.498C41.414 40.082 41.544 39.731 41.544 39.445C41.544 39.133 41.401 38.977 41.115 38.977C40.829 38.977 40.452 39.133 39.984 39.445C39.542 39.731 39.009 40.16 38.385 40.732C37.397 41.642 36.461 42.747 35.577 44.047C34.719 45.321 33.913 46.79 33.159 48.454C32.977 48.844 32.561 49.052 31.911 49.078C31.053 49.13 30.546 49.195 30.39 49.273ZM45.2816 49.273C45.8016 47.999 46.4516 46.426 47.2316 44.554C48.0116 42.682 48.9606 40.524 50.0786 38.08C50.3126 37.56 50.5336 37.131 50.7416 36.793C50.9496 36.455 51.1446 36.195 51.3266 36.013C51.6906 35.649 52.1586 35.467 52.7306 35.467C52.7826 35.467 52.8736 35.467 53.0036 35.467C53.1336 35.467 53.3156 35.493 53.5496 35.545C53.9136 35.571 54.1866 35.571 54.3686 35.545C53.4066 36.117 51.9636 38.639 50.0396 43.111C50.3256 42.747 50.6896 42.292 51.1316 41.746C51.5736 41.174 52.1456 40.55 52.8476 39.874C53.5756 39.172 54.1736 38.626 54.6416 38.236C55.1096 37.846 55.4346 37.586 55.6166 37.456C56.7606 36.598 57.6056 36.169 58.1516 36.169C58.9056 36.169 59.2826 36.533 59.2826 37.261C59.2826 37.495 59.2306 37.716 59.1266 37.924C58.8146 38.522 58.4116 39.276 57.9176 40.186C57.4496 41.096 56.9036 42.162 56.2796 43.384C57.5276 41.824 58.6066 40.641 59.5166 39.835C59.9846 39.419 60.5046 39.016 61.0766 38.626C61.6746 38.236 62.3116 37.846 62.9876 37.456C64.4696 36.598 65.5876 36.169 66.3416 36.169C66.5236 36.169 66.6536 36.182 66.7316 36.208C66.3156 36.936 65.9256 37.638 65.5616 38.314C65.2236 38.99 64.8986 39.627 64.5866 40.225C63.8586 41.655 63.2866 42.877 62.8706 43.891C62.4546 44.905 62.1816 45.698 62.0516 46.27C62.0256 46.452 61.9996 46.621 61.9736 46.777C61.9736 46.933 61.9736 47.076 61.9736 47.206C61.9736 47.882 62.2206 48.22 62.7146 48.22C63.5206 48.22 64.4826 47.401 65.6006 45.763L66.1466 46.153C64.8206 48.155 63.4946 49.156 62.1686 49.156C60.5306 49.156 59.7116 48.311 59.7116 46.621C59.7116 45.217 60.5436 43.176 62.2076 40.498C62.4676 40.082 62.5976 39.731 62.5976 39.445C62.5976 39.133 62.4676 38.977 62.2076 38.977C61.9216 38.977 61.5446 39.133 61.0766 39.445C60.6086 39.731 60.0756 40.147 59.4776 40.693C58.9836 41.161 58.4636 41.72 57.9176 42.37C57.3976 43.02 56.8386 43.761 56.2406 44.593C54.9406 46.491 54.1736 47.96 53.9396 49C53.4976 49 53.1596 48.792 52.9256 48.376C52.7436 48.012 52.6526 47.648 52.6526 47.284C52.6526 46.764 52.8346 46.075 53.1986 45.217C53.5626 44.359 54.0696 43.319 54.7196 42.097C55.4736 40.745 55.8506 39.77 55.8506 39.172C55.8506 38.912 55.7466 38.782 55.5386 38.782C55.1226 38.782 54.1996 39.432 52.7696 40.732C52.4056 41.07 52.0156 41.499 51.5996 42.019C51.2096 42.513 50.7936 43.098 50.3516 43.774C49.3376 45.282 48.5576 46.79 48.0116 48.298C47.8556 48.688 47.4526 48.922 46.8026 49C45.9706 49.078 45.4636 49.169 45.2816 49.273ZM66.3431 49.273C66.8371 48.025 67.4871 46.465 68.2931 44.593C69.1251 42.721 70.0611 40.589 71.1011 38.197C71.3091 37.677 71.5041 37.261 71.6861 36.949C71.8941 36.637 72.0761 36.39 72.2321 36.208C72.5701 35.818 73.0251 35.662 73.5971 35.74L74.4161 35.857C74.5981 35.883 74.7541 35.909 74.8841 35.935C75.0401 35.935 75.1701 35.922 75.2741 35.896C74.7541 36.156 74.1431 36.897 73.4411 38.119C72.7651 39.315 72.0111 40.953 71.1791 43.033C71.4651 42.669 71.8291 42.188 72.2711 41.59C72.7131 40.966 73.2721 40.251 73.9481 39.445C74.7021 38.561 75.4821 37.742 76.2881 36.988C77.0941 36.234 77.8741 35.857 78.6281 35.857C79.2261 35.857 79.6551 36.052 79.9151 36.442C80.1751 36.832 80.3051 37.274 80.3051 37.768C80.3051 38.366 80.0711 38.899 79.6031 39.367C79.1351 39.835 78.6801 40.069 78.2381 40.069C78.0561 40.069 77.8611 40.03 77.6531 39.952C77.4711 39.874 77.3801 39.757 77.3801 39.601C77.3801 39.471 77.4061 39.354 77.4581 39.25C77.5101 39.12 77.5361 38.977 77.5361 38.821C77.5361 38.431 77.3541 38.236 76.9901 38.236C76.8601 38.236 76.6781 38.275 76.4441 38.353C76.2361 38.405 75.9501 38.613 75.5861 38.977C74.8581 39.653 74.0651 40.472 73.2071 41.434C72.3751 42.37 71.5821 43.423 70.8281 44.593C70.1001 45.763 69.5021 47.05 69.0341 48.454C68.9041 48.844 68.5141 49.052 67.8641 49.078C66.9801 49.13 66.4731 49.195 66.3431 49.273Z" fill="#EDEEF3"/>
<path d="M31.39 49.273C32.274 47.245 33.535 44.346 35.173 40.576C36.837 36.78 38.891 32.126 41.335 26.614C41.361 26.536 41.374 26.458 41.374 26.38C41.4 26.302 41.413 26.224 41.413 26.146C41.413 25.782 41.257 25.392 40.945 24.976H43.051C43.779 24.976 44.143 25.145 44.143 25.483C44.143 25.665 44.065 25.938 43.909 26.302C43.103 28.044 42.063 30.332 40.789 33.166C39.515 36 37.994 39.38 36.226 43.306C36.616 42.76 37.084 42.201 37.63 41.629C38.176 41.057 38.787 40.472 39.463 39.874C39.931 39.432 40.451 39.016 41.023 38.626C41.595 38.21 42.219 37.82 42.895 37.456C44.429 36.598 45.56 36.169 46.288 36.169C46.47 36.169 46.6 36.182 46.678 36.208C46.262 36.936 45.872 37.638 45.508 38.314C45.17 38.99 44.845 39.627 44.533 40.225C43.025 43.137 42.18 45.152 41.998 46.27C41.92 46.66 41.881 46.998 41.881 47.284C41.881 47.986 42.141 48.337 42.661 48.337C43.363 48.337 44.312 47.466 45.508 45.724L46.093 46.075C44.741 48.129 43.402 49.156 42.076 49.156C40.438 49.156 39.619 48.311 39.619 46.621C39.619 45.243 40.464 43.202 42.154 40.498C42.414 40.082 42.544 39.731 42.544 39.445C42.544 39.133 42.401 38.977 42.115 38.977C41.829 38.977 41.452 39.133 40.984 39.445C40.542 39.731 40.009 40.16 39.385 40.732C38.397 41.642 37.461 42.747 36.577 44.047C35.719 45.321 34.913 46.79 34.159 48.454C33.977 48.844 33.561 49.052 32.911 49.078C32.053 49.13 31.546 49.195 31.39 49.273ZM46.2816 49.273C46.8016 47.999 47.4516 46.426 48.2316 44.554C49.0116 42.682 49.9606 40.524 51.0786 38.08C51.3126 37.56 51.5336 37.131 51.7416 36.793C51.9496 36.455 52.1446 36.195 52.3266 36.013C52.6906 35.649 53.1586 35.467 53.7306 35.467C53.7826 35.467 53.8736 35.467 54.0036 35.467C54.1336 35.467 54.3156 35.493 54.5496 35.545C54.9136 35.571 55.1866 35.571 55.3686 35.545C54.4066 36.117 52.9636 38.639 51.0396 43.111C51.3256 42.747 51.6896 42.292 52.1316 41.746C52.5736 41.174 53.1456 40.55 53.8476 39.874C54.5756 39.172 55.1736 38.626 55.6416 38.236C56.1096 37.846 56.4346 37.586 56.6166 37.456C57.7606 36.598 58.6056 36.169 59.1516 36.169C59.9056 36.169 60.2826 36.533 60.2826 37.261C60.2826 37.495 60.2306 37.716 60.1266 37.924C59.8146 38.522 59.4116 39.276 58.9176 40.186C58.4496 41.096 57.9036 42.162 57.2796 43.384C58.5276 41.824 59.6066 40.641 60.5166 39.835C60.9846 39.419 61.5046 39.016 62.0766 38.626C62.6746 38.236 63.3116 37.846 63.9876 37.456C65.4696 36.598 66.5876 36.169 67.3416 36.169C67.5236 36.169 67.6536 36.182 67.7316 36.208C67.3156 36.936 66.9256 37.638 66.5616 38.314C66.2236 38.99 65.8986 39.627 65.5866 40.225C64.8586 41.655 64.2866 42.877 63.8706 43.891C63.4546 44.905 63.1816 45.698 63.0516 46.27C63.0256 46.452 62.9996 46.621 62.9736 46.777C62.9736 46.933 62.9736 47.076 62.9736 47.206C62.9736 47.882 63.2206 48.22 63.7146 48.22C64.5206 48.22 65.4826 47.401 66.6006 45.763L67.1466 46.153C65.8206 48.155 64.4946 49.156 63.1686 49.156C61.5306 49.156 60.7116 48.311 60.7116 46.621C60.7116 45.217 61.5436 43.176 63.2076 40.498C63.4676 40.082 63.5976 39.731 63.5976 39.445C63.5976 39.133 63.4676 38.977 63.2076 38.977C62.9216 38.977 62.5446 39.133 62.0766 39.445C61.6086 39.731 61.0756 40.147 60.4776 40.693C59.9836 41.161 59.4636 41.72 58.9176 42.37C58.3976 43.02 57.8386 43.761 57.2406 44.593C55.9406 46.491 55.1736 47.96 54.9396 49C54.4976 49 54.1596 48.792 53.9256 48.376C53.7436 48.012 53.6526 47.648 53.6526 47.284C53.6526 46.764 53.8346 46.075 54.1986 45.217C54.5626 44.359 55.0696 43.319 55.7196 42.097C56.4736 40.745 56.8506 39.77 56.8506 39.172C56.8506 38.912 56.7466 38.782 56.5386 38.782C56.1226 38.782 55.1996 39.432 53.7696 40.732C53.4056 41.07 53.0156 41.499 52.5996 42.019C52.2096 42.513 51.7936 43.098 51.3516 43.774C50.3376 45.282 49.5576 46.79 49.0116 48.298C48.8556 48.688 48.4526 48.922 47.8026 49C46.9706 49.078 46.4636 49.169 46.2816 49.273ZM67.3431 49.273C67.8371 48.025 68.4871 46.465 69.2931 44.593C70.1251 42.721 71.0611 40.589 72.1011 38.197C72.3091 37.677 72.5041 37.261 72.6861 36.949C72.8941 36.637 73.0761 36.39 73.2321 36.208C73.5701 35.818 74.0251 35.662 74.5971 35.74L75.4161 35.857C75.5981 35.883 75.7541 35.909 75.8841 35.935C76.0401 35.935 76.1701 35.922 76.2741 35.896C75.7541 36.156 75.1431 36.897 74.4411 38.119C73.7651 39.315 73.0111 40.953 72.1791 43.033C72.4651 42.669 72.8291 42.188 73.2711 41.59C73.7131 40.966 74.2721 40.251 74.9481 39.445C75.7021 38.561 76.4821 37.742 77.2881 36.988C78.0941 36.234 78.8741 35.857 79.6281 35.857C80.2261 35.857 80.6551 36.052 80.9151 36.442C81.1751 36.832 81.3051 37.274 81.3051 37.768C81.3051 38.366 81.0711 38.899 80.6031 39.367C80.1351 39.835 79.6801 40.069 79.2381 40.069C79.0561 40.069 78.8611 40.03 78.6531 39.952C78.4711 39.874 78.3801 39.757 78.3801 39.601C78.3801 39.471 78.4061 39.354 78.4581 39.25C78.5101 39.12 78.5361 38.977 78.5361 38.821C78.5361 38.431 78.3541 38.236 77.9901 38.236C77.8601 38.236 77.6781 38.275 77.4441 38.353C77.2361 38.405 76.9501 38.613 76.5861 38.977C75.8581 39.653 75.0651 40.472 74.2071 41.434C73.3751 42.37 72.5821 43.423 71.8281 44.593C71.1001 45.763 70.5021 47.05 70.0341 48.454C69.9041 48.844 69.5141 49.052 68.8641 49.078C67.9801 49.13 67.4731 49.195 67.3431 49.273Z" fill="#EDEEF3"/>
<path d="M32.39 49.273C33.274 47.245 34.535 44.346 36.173 40.576C37.837 36.78 39.891 32.126 42.335 26.614C42.361 26.536 42.374 26.458 42.374 26.38C42.4 26.302 42.413 26.224 42.413 26.146C42.413 25.782 42.257 25.392 41.945 24.976H44.051C44.779 24.976 45.143 25.145 45.143 25.483C45.143 25.665 45.065 25.938 44.909 26.302C44.103 28.044 43.063 30.332 41.789 33.166C40.515 36 38.994 39.38 37.226 43.306C37.616 42.76 38.084 42.201 38.63 41.629C39.176 41.057 39.787 40.472 40.463 39.874C40.931 39.432 41.451 39.016 42.023 38.626C42.595 38.21 43.219 37.82 43.895 37.456C45.429 36.598 46.56 36.169 47.288 36.169C47.47 36.169 47.6 36.182 47.678 36.208C47.262 36.936 46.872 37.638 46.508 38.314C46.17 38.99 45.845 39.627 45.533 40.225C44.025 43.137 43.18 45.152 42.998 46.27C42.92 46.66 42.881 46.998 42.881 47.284C42.881 47.986 43.141 48.337 43.661 48.337C44.363 48.337 45.312 47.466 46.508 45.724L47.093 46.075C45.741 48.129 44.402 49.156 43.076 49.156C41.438 49.156 40.619 48.311 40.619 46.621C40.619 45.243 41.464 43.202 43.154 40.498C43.414 40.082 43.544 39.731 43.544 39.445C43.544 39.133 43.401 38.977 43.115 38.977C42.829 38.977 42.452 39.133 41.984 39.445C41.542 39.731 41.009 40.16 40.385 40.732C39.397 41.642 38.461 42.747 37.577 44.047C36.719 45.321 35.913 46.79 35.159 48.454C34.977 48.844 34.561 49.052 33.911 49.078C33.053 49.13 32.546 49.195 32.39 49.273ZM47.2816 49.273C47.8016 47.999 48.4516 46.426 49.2316 44.554C50.0116 42.682 50.9606 40.524 52.0786 38.08C52.3126 37.56 52.5336 37.131 52.7416 36.793C52.9496 36.455 53.1446 36.195 53.3266 36.013C53.6906 35.649 54.1586 35.467 54.7306 35.467C54.7826 35.467 54.8736 35.467 55.0036 35.467C55.1336 35.467 55.3156 35.493 55.5496 35.545C55.9136 35.571 56.1866 35.571 56.3686 35.545C55.4066 36.117 53.9636 38.639 52.0396 43.111C52.3256 42.747 52.6896 42.292 53.1316 41.746C53.5736 41.174 54.1456 40.55 54.8476 39.874C55.5756 39.172 56.1736 38.626 56.6416 38.236C57.1096 37.846 57.4346 37.586 57.6166 37.456C58.7606 36.598 59.6056 36.169 60.1516 36.169C60.9056 36.169 61.2826 36.533 61.2826 37.261C61.2826 37.495 61.2306 37.716 61.1266 37.924C60.8146 38.522 60.4116 39.276 59.9176 40.186C59.4496 41.096 58.9036 42.162 58.2796 43.384C59.5276 41.824 60.6066 40.641 61.5166 39.835C61.9846 39.419 62.5046 39.016 63.0766 38.626C63.6746 38.236 64.3116 37.846 64.9876 37.456C66.4696 36.598 67.5876 36.169 68.3416 36.169C68.5236 36.169 68.6536 36.182 68.7316 36.208C68.3156 36.936 67.9256 37.638 67.5616 38.314C67.2236 38.99 66.8986 39.627 66.5866 40.225C65.8586 41.655 65.2866 42.877 64.8706 43.891C64.4546 44.905 64.1816 45.698 64.0516 46.27C64.0256 46.452 63.9996 46.621 63.9736 46.777C63.9736 46.933 63.9736 47.076 63.9736 47.206C63.9736 47.882 64.2206 48.22 64.7146 48.22C65.5206 48.22 66.4826 47.401 67.6006 45.763L68.1466 46.153C66.8206 48.155 65.4946 49.156 64.1686 49.156C62.5306 49.156 61.7116 48.311 61.7116 46.621C61.7116 45.217 62.5436 43.176 64.2076 40.498C64.4676 40.082 64.5976 39.731 64.5976 39.445C64.5976 39.133 64.4676 38.977 64.2076 38.977C63.9216 38.977 63.5446 39.133 63.0766 39.445C62.6086 39.731 62.0756 40.147 61.4776 40.693C60.9836 41.161 60.4636 41.72 59.9176 42.37C59.3976 43.02 58.8386 43.761 58.2406 44.593C56.9406 46.491 56.1736 47.96 55.9396 49C55.4976 49 55.1596 48.792 54.9256 48.376C54.7436 48.012 54.6526 47.648 54.6526 47.284C54.6526 46.764 54.8346 46.075 55.1986 45.217C55.5626 44.359 56.0696 43.319 56.7196 42.097C57.4736 40.745 57.8506 39.77 57.8506 39.172C57.8506 38.912 57.7466 38.782 57.5386 38.782C57.1226 38.782 56.1996 39.432 54.7696 40.732C54.4056 41.07 54.0156 41.499 53.5996 42.019C53.2096 42.513 52.7936 43.098 52.3516 43.774C51.3376 45.282 50.5576 46.79 50.0116 48.298C49.8556 48.688 49.4526 48.922 48.8026 49C47.9706 49.078 47.4636 49.169 47.2816 49.273ZM68.3431 49.273C68.8371 48.025 69.4871 46.465 70.2931 44.593C71.1251 42.721 72.0611 40.589 73.1011 38.197C73.3091 37.677 73.5041 37.261 73.6861 36.949C73.8941 36.637 74.0761 36.39 74.2321 36.208C74.5701 35.818 75.0251 35.662 75.5971 35.74L76.4161 35.857C76.5981 35.883 76.7541 35.909 76.8841 35.935C77.0401 35.935 77.1701 35.922 77.2741 35.896C76.7541 36.156 76.1431 36.897 75.4411 38.119C74.7651 39.315 74.0111 40.953 73.1791 43.033C73.4651 42.669 73.8291 42.188 74.2711 41.59C74.7131 40.966 75.2721 40.251 75.9481 39.445C76.7021 38.561 77.4821 37.742 78.2881 36.988C79.0941 36.234 79.8741 35.857 80.6281 35.857C81.2261 35.857 81.6551 36.052 81.9151 36.442C82.1751 36.832 82.3051 37.274 82.3051 37.768C82.3051 38.366 82.0711 38.899 81.6031 39.367C81.1351 39.835 80.6801 40.069 80.2381 40.069C80.0561 40.069 79.8611 40.03 79.6531 39.952C79.4711 39.874 79.3801 39.757 79.3801 39.601C79.3801 39.471 79.4061 39.354 79.4581 39.25C79.5101 39.12 79.5361 38.977 79.5361 38.821C79.5361 38.431 79.3541 38.236 78.9901 38.236C78.8601 38.236 78.6781 38.275 78.4441 38.353C78.2361 38.405 77.9501 38.613 77.5861 38.977C76.8581 39.653 76.0651 40.472 75.2071 41.434C74.3751 42.37 73.5821 43.423 72.8281 44.593C72.1001 45.763 71.5021 47.05 71.0341 48.454C70.9041 48.844 70.5141 49.052 69.8641 49.078C68.9801 49.13 68.4731 49.195 68.3431 49.273Z" fill="#EDEEF3"/>
<path d="M30.39 49.273C31.274 47.245 32.535 44.346 34.173 40.576C35.837 36.78 37.891 32.126 40.335 26.614C40.361 26.536 40.374 26.458 40.374 26.38C40.4 26.302 40.413 26.224 40.413 26.146C40.413 25.782 40.257 25.392 39.945 24.976H42.051C42.779 24.976 43.143 25.145 43.143 25.483C43.143 25.665 43.065 25.938 42.909 26.302C42.103 28.044 41.063 30.332 39.789 33.166C38.515 36 36.994 39.38 35.226 43.306C35.616 42.76 36.084 42.201 36.63 41.629C37.176 41.057 37.787 40.472 38.463 39.874C38.931 39.432 39.451 39.016 40.023 38.626C40.595 38.21 41.219 37.82 41.895 37.456C43.429 36.598 44.56 36.169 45.288 36.169C45.47 36.169 45.6 36.182 45.678 36.208C45.262 36.936 44.872 37.638 44.508 38.314C44.17 38.99 43.845 39.627 43.533 40.225C42.025 43.137 41.18 45.152 40.998 46.27C40.92 46.66 40.881 46.998 40.881 47.284C40.881 47.986 41.141 48.337 41.661 48.337C42.363 48.337 43.312 47.466 44.508 45.724L45.093 46.075C43.741 48.129 42.402 49.156 41.076 49.156C39.438 49.156 38.619 48.311 38.619 46.621C38.619 45.243 39.464 43.202 41.154 40.498C41.414 40.082 41.544 39.731 41.544 39.445C41.544 39.133 41.401 38.977 41.115 38.977C40.829 38.977 40.452 39.133 39.984 39.445C39.542 39.731 39.009 40.16 38.385 40.732C37.397 41.642 36.461 42.747 35.577 44.047C34.719 45.321 33.913 46.79 33.159 48.454C32.977 48.844 32.561 49.052 31.911 49.078C31.053 49.13 30.546 49.195 30.39 49.273ZM45.2816 49.273C45.8016 47.999 46.4516 46.426 47.2316 44.554C48.0116 42.682 48.9606 40.524 50.0786 38.08C50.3126 37.56 50.5336 37.131 50.7416 36.793C50.9496 36.455 51.1446 36.195 51.3266 36.013C51.6906 35.649 52.1586 35.467 52.7306 35.467C52.7826 35.467 52.8736 35.467 53.0036 35.467C53.1336 35.467 53.3156 35.493 53.5496 35.545C53.9136 35.571 54.1866 35.571 54.3686 35.545C53.4066 36.117 51.9636 38.639 50.0396 43.111C50.3256 42.747 50.6896 42.292 51.1316 41.746C51.5736 41.174 52.1456 40.55 52.8476 39.874C53.5756 39.172 54.1736 38.626 54.6416 38.236C55.1096 37.846 55.4346 37.586 55.6166 37.456C56.7606 36.598 57.6056 36.169 58.1516 36.169C58.9056 36.169 59.2826 36.533 59.2826 37.261C59.2826 37.495 59.2306 37.716 59.1266 37.924C58.8146 38.522 58.4116 39.276 57.9176 40.186C57.4496 41.096 56.9036 42.162 56.2796 43.384C57.5276 41.824 58.6066 40.641 59.5166 39.835C59.9846 39.419 60.5046 39.016 61.0766 38.626C61.6746 38.236 62.3116 37.846 62.9876 37.456C64.4696 36.598 65.5876 36.169 66.3416 36.169C66.5236 36.169 66.6536 36.182 66.7316 36.208C66.3156 36.936 65.9256 37.638 65.5616 38.314C65.2236 38.99 64.8986 39.627 64.5866 40.225C63.8586 41.655 63.2866 42.877 62.8706 43.891C62.4546 44.905 62.1816 45.698 62.0516 46.27C62.0256 46.452 61.9996 46.621 61.9736 46.777C61.9736 46.933 61.9736 47.076 61.9736 47.206C61.9736 47.882 62.2206 48.22 62.7146 48.22C63.5206 48.22 64.4826 47.401 65.6006 45.763L66.1466 46.153C64.8206 48.155 63.4946 49.156 62.1686 49.156C60.5306 49.156 59.7116 48.311 59.7116 46.621C59.7116 45.217 60.5436 43.176 62.2076 40.498C62.4676 40.082 62.5976 39.731 62.5976 39.445C62.5976 39.133 62.4676 38.977 62.2076 38.977C61.9216 38.977 61.5446 39.133 61.0766 39.445C60.6086 39.731 60.0756 40.147 59.4776 40.693C58.9836 41.161 58.4636 41.72 57.9176 42.37C57.3976 43.02 56.8386 43.761 56.2406 44.593C54.9406 46.491 54.1736 47.96 53.9396 49C53.4976 49 53.1596 48.792 52.9256 48.376C52.7436 48.012 52.6526 47.648 52.6526 47.284C52.6526 46.764 52.8346 46.075 53.1986 45.217C53.5626 44.359 54.0696 43.319 54.7196 42.097C55.4736 40.745 55.8506 39.77 55.8506 39.172C55.8506 38.912 55.7466 38.782 55.5386 38.782C55.1226 38.782 54.1996 39.432 52.7696 40.732C52.4056 41.07 52.0156 41.499 51.5996 42.019C51.2096 42.513 50.7936 43.098 50.3516 43.774C49.3376 45.282 48.5576 46.79 48.0116 48.298C47.8556 48.688 47.4526 48.922 46.8026 49C45.9706 49.078 45.4636 49.169 45.2816 49.273ZM66.3431 49.273C66.8371 48.025 67.4871 46.465 68.2931 44.593C69.1251 42.721 70.0611 40.589 71.1011 38.197C71.3091 37.677 71.5041 37.261 71.6861 36.949C71.8941 36.637 72.0761 36.39 72.2321 36.208C72.5701 35.818 73.0251 35.662 73.5971 35.74L74.4161 35.857C74.5981 35.883 74.7541 35.909 74.8841 35.935C75.0401 35.935 75.1701 35.922 75.2741 35.896C74.7541 36.156 74.1431 36.897 73.4411 38.119C72.7651 39.315 72.0111 40.953 71.1791 43.033C71.4651 42.669 71.8291 42.188 72.2711 41.59C72.7131 40.966 73.2721 40.251 73.9481 39.445C74.7021 38.561 75.4821 37.742 76.2881 36.988C77.0941 36.234 77.8741 35.857 78.6281 35.857C79.2261 35.857 79.6551 36.052 79.9151 36.442C80.1751 36.832 80.3051 37.274 80.3051 37.768C80.3051 38.366 80.0711 38.899 79.6031 39.367C79.1351 39.835 78.6801 40.069 78.2381 40.069C78.0561 40.069 77.8611 40.03 77.6531 39.952C77.4711 39.874 77.3801 39.757 77.3801 39.601C77.3801 39.471 77.4061 39.354 77.4581 39.25C77.5101 39.12 77.5361 38.977 77.5361 38.821C77.5361 38.431 77.3541 38.236 76.9901 38.236C76.8601 38.236 76.6781 38.275 76.4441 38.353C76.2361 38.405 75.9501 38.613 75.5861 38.977C74.8581 39.653 74.0651 40.472 73.2071 41.434C72.3751 42.37 71.5821 43.423 70.8281 44.593C70.1001 45.763 69.5021 47.05 69.0341 48.454C68.9041 48.844 68.5141 49.052 67.8641 49.078C66.9801 49.13 66.4731 49.195 66.3431 49.273Z" fill="#EDEEF3"/>
<rect x="420" y="30" width="20" height="20" rx="10" fill="#F1F2F7"/>
<rect x="450" y="30" width="20" height="20" rx="10" fill="#F1F2F7"/>
</g>
<rect x="20" y="70" width="145" height="310" rx="15" fill="#2A2B33"/>
<rect x="35" y="85" width="115" height="25" rx="12.5" fill="#17181E"/>
<rect x="35" y="121" width="115" height="25" rx="12.5" fill="#17181E"/>
<rect x="35" y="157" width="115" height="25" rx="12.5" fill="#17181E"/>
<rect x="35" y="193" width="115" height="25" rx="12.5" fill="#17181E"/>
<g opacity="0.8">
<rect x="175" y="70" width="79" height="90" rx="15" fill="white"/>
<rect x="259" y="70" width="108" height="90" rx="15" fill="white"/>
<rect x="372" y="70" width="108" height="90" rx="15" fill="white"/>
<rect x="175" y="165" width="305" height="53" rx="15" fill="white"/>
<rect x="175" y="223" width="150" height="157" rx="15" fill="white"/>
<rect x="330" y="223" width="150" height="157" rx="15" fill="white"/>
</g>
<defs>
<clipPath id="clip0_332_815">
<rect x="20" y="20" width="460" height="40" rx="15" fill="white"/>
</clipPath>
</defs>
</svg>
